# xmcd CD database file generated by Grip 3.2.0
# 
# Track frame offsets:
#       150
#       12782
#       26005
#       37490
#       52477
#       64982
#       77727
#       89317
#       99220
#       113590
#       123960
#       136027
#       148417
#       161557
#       173052
#       187362
#       198690
#       209750
#       219202
#       232990
# 
# Disc length: 3272 seconds
# 
# Revision: 2
# Processed by: cddbd v1.5.2PL0 Copyright (c) Steve Scherf et al.
# Submitted via: Grip 3.2.0
# 
DISCID=2b0cc614
DTITLE=Various Artist - Giant of Country
DYEAR=1900
DGENRE=Alternative
TTITLE0=Johnny Cash - Folsom Prison Blues
TTITLE1=Kenny Rogers-Ruby, Don't Take Your Love to Town
TTITLE2=Freddy Fender-Before the Next Teardrop Falls
TTITLE3=Willie Nelson-Face of Fighter
TTITLE4=Kenny Rogers-Ruben James
TTITLE5=Freddy Fender-You'll Lose a Good Thing
TTITLE6=Willie Nelson-End of Understanding
TTITLE7=Johnny Cash-Ballad of a Teenage Queen
TTITLE8=Freddy Fender-Since I Met You Baby
TTITLE9=Willie Nelson-Blame It on the Time
TTITLE10=Kenny Rogers-Elvira
TTITLE11=JJohnny Cash-I Walk the Line
TTITLE12=Freddy Fender-Wasted Days and Wasted Nights
TTITLE13=Willie Nelson-Is There Something on Your Mind
TTITLE14=Kenny Rogers-Sunshine
TTITLE15=Johnny Cash-Big River
TTITLE16=Freddy Fender-Mathilda
TTITLE17=Willie Nelson-Building Heartaches
TTITLE18=Kenny Rogers-Loser
TTITLE19=Johnny Cash-Next in Line
EXTD=
EXTT0=
EXTT1=
EXTT2=
EXTT3=
EXTT4=
EXTT5=
EXTT6=
EXTT7=
EXTT8=
EXTT9=
EXTT10=
EXTT11=
EXTT12=
EXTT13=
EXTT14=
EXTT15=
EXTT16=
EXTT17=
EXTT18=
EXTT19=
PLAYORDER=
